<svg width="24" height="24" viewBox="0 0 24 24" fill="none" xmlns="http://www.w3.org/2000/svg">
<path d="M1 15.7155C1.34829 15.7496 1.69215 16.0852 1.9595 16.2757C2.44954 16.6249 2.95692 16.9717 3.42731 17.3458C4.46509 18.1713 5.7303 18.9531 6.65421 19.9007C6.89861 20.1513 7.21196 20.3078 7.4595 20.5506C7.6678 20.7549 7.80671 21.0294 8.0135 21.2397C8.25373 21.4841 8.43728 21.7451 8.68744 21.9905C8.73588 22.038 8.72587 21.8955 8.77882 21.8224C9.22312 21.209 9.66327 20.592 10.1096 19.9791C12.5829 16.5823 14.8377 13.046 17.3572 9.67572C18.9998 7.47843 20.5052 5.18534 22.1776 3.00849C22.3981 2.72138 22.6733 2.16022 23 2" stroke="black" stroke-width="3"/>
</svg>
